# xmcd
#
# Track frame offsets: 
#        150
#        18022
#        34975
#        55047
#        76942
#        94210
#        116160
#        135657
#        160915
#        181667
#        201062
#        217670
#        235232
#        253927
#        270017
#        297690
#
# Disc length: 4418 seconds
#
# Revision: 1
# Processed by: cddbd v1.5.2PL0 Copyright (c) Steve Scherf et al.
# Submitted via: ExactAudioCopy v0.95b4
#
DISCID=d5114010
DTITLE=Debbie Gibson - Anything Is Possible
DYEAR=1990
DGENRE=Synthpop
TTITLE0=Another Brick Falls
TTITLE1=Anything Is Possible
TTITLE2=Reverse Psychology
TTITLE3=One Step Ahead
TTITLE4=Stand Your Ground
TTITLE5=Deep Down
TTITLE6=It Must've Been My Boy
TTITLE7=Lead Them Home My Dreams
TTITLE8=One Hand, One Heart
TTITLE9=Sure
TTITLE10=Negative Energy
TTITLE11=Mood Swings
TTITLE12=Try
TTITLE13=In His Mind
TTITLE14=Where Have You Been?
TTITLE15=This So-Called Miracle
EXTD=
EXTT0=
EXTT1=
EXTT2=
EXTT3=
EXTT4=
EXTT5=
EXTT6=
EXTT7=
EXTT8=
EXTT9=
EXTT10=
EXTT11=
EXTT12=
EXTT13=
EXTT14=
EXTT15=
PLAYORDER=
